<svg xmlns="http://www.w3.org/2000/svg" version="1.1"  width="1100" height="1100" ><defs><linearGradient id="_c0">
<stop offset="0" style="stop-opacity:1;stop-color:#111" /></linearGradient><linearGradient id="_c1">
<stop offset="0" style="stop-opacity:1;stop-color:#333" /></linearGradient><linearGradient id="_c2">
<stop offset="0" style="stop-opacity:1;stop-color:#666" /></linearGradient><linearGradient id="_c3">
<stop offset="0" style="stop-opacity:1;stop-color:#999" /></linearGradient><linearGradient id="_c4">
<stop offset="0" style="stop-opacity:1;stop-color:#AAA" /></linearGradient><linearGradient id="_c5">
<stop offset="0" style="stop-opacity:1;stop-color:#CCC" /></linearGradient><linearGradient id="_c6">
<stop offset="0" style="stop-opacity:1;stop-color:#EEE" /></linearGradient><linearGradient id="_c7">
<stop offset="0" style="stop-opacity:1;stop-color:#F4F4F4" /></linearGradient><linearGradient id="_c8">
<stop offset="0" style="stop-opacity:1;stop-color:#A11" /></linearGradient><linearGradient id="_c9">
<stop offset="0" style="stop-opacity:1;stop-color:#A11" /></linearGradient></defs><g>
<rect  class="swatch_3 spans_1" width="20" height="20" x="0" y="0" style="fill:url(#_c3);stroke:#999;" />
<rect  class="swatch_2 spans_1" width="20" height="20" x="20" y="0" style="fill:url(#_c2);stroke:#999;" />
<rect  class="swatch_2 spans_1" width="20" height="20" x="40" y="0" style="fill:url(#_c2);stroke:#999;" />
<rect  class="swatch_2 spans_1" width="20" height="20" x="60" y="0" style="fill:url(#_c2);stroke:#999;" />
<rect  class="swatch_2 spans_1" width="20" height="20" x="80" y="0" style="fill:url(#_c2);stroke:#999;" />
<rect  class="swatch_1 spans_1" width="20" height="20" x="100" y="0" style="fill:url(#_c1);stroke:#999;" />
<rect  class="swatch_3 spans_1" width="20" height="20" x="120" y="0" style="fill:url(#_c3);stroke:#999;" />
<rect  class="swatch_2 spans_1" width="20" height="20" x="140" y="0" style="fill:url(#_c2);stroke:#999;" />
<rect  class="swatch_3 spans_1" width="20" height="20" x="160" y="0" style="fill:url(#_c3);stroke:#999;" />
<rect  class="swatch_2 spans_1" width="20" height="20" x="180" y="0" style="fill:url(#_c2);stroke:#999;" />
<rect  class="swatch_3 spans_1" width="20" height="20" x="200" y="0" style="fill:url(#_c3);stroke:#999;" />
<rect  class="swatch_2 spans_1" width="20" height="20" x="220" y="0" style="fill:url(#_c2);stroke:#999;" />
<rect  class="swatch_0 spans_1" width="20" height="20" x="240" y="0" style="fill:url(#_c0);stroke:#999;" />
<rect  class="swatch_0 spans_1" width="20" height="20" x="260" y="0" style="fill:url(#_c0);stroke:#999;" />
<rect  class="swatch_1 spans_1" width="20" height="20" x="280" y="0" style="fill:url(#_c1);stroke:#999;" />
<rect  class="swatch_1 spans_1" width="20" height="20" x="300" y="0" style="fill:url(#_c1);stroke:#999;" />


<rect  class="swatch_3 spans_1" width="20" height="20" x="0" y="20" style="fill:url(#_c3);stroke:#999;" />
<rect  class="swatch_3 spans_1" width="20" height="20" x="20" y="20" style="fill:url(#_c3);stroke:#999;" />
<rect  class="swatch_0 spans_1" width="20" height="20" x="40" y="20" style="fill:url(#_c0);stroke:#999;" />
<rect  class="swatch_1 spans_1" width="20" height="20" x="60" y="20" style="fill:url(#_c1);stroke:#999;" />
<rect  class="swatch_0 spans_1" width="20" height="20" x="80" y="20" style="fill:url(#_c0);stroke:#999;" />
<rect  class="swatch_0 spans_1" width="20" height="20" x="100" y="20" style="fill:url(#_c0);stroke:#999;" />
<rect  class="swatch_3 spans_1" width="20" height="20" x="120" y="20" style="fill:url(#_c3);stroke:#999;" />
<rect  class="swatch_3 spans_1" width="20" height="20" x="140" y="20" style="fill:url(#_c3);stroke:#999;" />
<rect  class="swatch_0 spans_1" width="20" height="20" x="160" y="20" style="fill:url(#_c0);stroke:#999;" />
<rect  class="swatch_3 spans_1" width="20" height="20" x="180" y="20" style="fill:url(#_c3);stroke:#999;" />
<rect  class="swatch_2 spans_1" width="20" height="20" x="200" y="20" style="fill:url(#_c2);stroke:#999;" />
<rect  class="swatch_2 spans_1" width="20" height="20" x="220" y="20" style="fill:url(#_c2);stroke:#999;" />
<rect  class="swatch_2 spans_1" width="20" height="20" x="240" y="20" style="fill:url(#_c2);stroke:#999;" />
<rect  class="swatch_3 spans_1" width="20" height="20" x="260" y="20" style="fill:url(#_c3);stroke:#999;" />
<rect  class="swatch_2 spans_1" width="20" height="20" x="280" y="20" style="fill:url(#_c2);stroke:#999;" />
<rect  class="swatch_3 spans_1" width="20" height="20" x="300" y="20" style="fill:url(#_c3);stroke:#999;" />


<rect  class="swatch_0 spans_1" width="20" height="20" x="0" y="40" style="fill:url(#_c0);stroke:#999;" />
<rect  class="swatch_2 spans_1" width="20" height="20" x="20" y="40" style="fill:url(#_c2);stroke:#999;" />
<rect  class="swatch_0 spans_1" width="20" height="20" x="40" y="40" style="fill:url(#_c0);stroke:#999;" />
<rect  class="swatch_0 spans_1" width="20" height="20" x="60" y="40" style="fill:url(#_c0);stroke:#999;" />
<rect  class="swatch_1 spans_1" width="20" height="20" x="80" y="40" style="fill:url(#_c1);stroke:#999;" />
<rect  class="swatch_2 spans_1" width="20" height="20" x="100" y="40" style="fill:url(#_c2);stroke:#999;" />
<rect  class="swatch_3 spans_1" width="20" height="20" x="120" y="40" style="fill:url(#_c3);stroke:#999;" />
<rect  class="swatch_3 spans_1" width="20" height="20" x="140" y="40" style="fill:url(#_c3);stroke:#999;" />
<rect  class="swatch_2 spans_1" width="20" height="20" x="160" y="40" style="fill:url(#_c2);stroke:#999;" />
<rect  class="swatch_1 spans_1" width="20" height="20" x="180" y="40" style="fill:url(#_c1);stroke:#999;" />
<rect  class="swatch_0 spans_1" width="20" height="20" x="200" y="40" style="fill:url(#_c0);stroke:#999;" />
<rect  class="swatch_3 spans_1" width="20" height="20" x="220" y="40" style="fill:url(#_c3);stroke:#999;" />
<rect  class="swatch_0 spans_1" width="20" height="20" x="240" y="40" style="fill:url(#_c0);stroke:#999;" />
<rect  class="swatch_0 spans_1" width="20" height="20" x="260" y="40" style="fill:url(#_c0);stroke:#999;" />
<rect  class="swatch_2 spans_1" width="20" height="20" x="280" y="40" style="fill:url(#_c2);stroke:#999;" />
<rect  class="swatch_2 spans_1" width="20" height="20" x="300" y="40" style="fill:url(#_c2);stroke:#999;" />


<rect  class="swatch_0 spans_1" width="20" height="20" x="0" y="60" style="fill:url(#_c0);stroke:#999;" />
<rect  class="swatch_1 spans_1" width="20" height="20" x="20" y="60" style="fill:url(#_c1);stroke:#999;" />
<rect  class="swatch_0 spans_1" width="20" height="20" x="40" y="60" style="fill:url(#_c0);stroke:#999;" />
<rect  class="swatch_2 spans_1" width="20" height="20" x="60" y="60" style="fill:url(#_c2);stroke:#999;" />
<rect  class="swatch_1 spans_1" width="20" height="20" x="80" y="60" style="fill:url(#_c1);stroke:#999;" />
<rect  class="swatch_2 spans_1" width="20" height="20" x="100" y="60" style="fill:url(#_c2);stroke:#999;" />
<rect  class="swatch_1 spans_1" width="20" height="20" x="120" y="60" style="fill:url(#_c1);stroke:#999;" />
<rect  class="swatch_2 spans_1" width="20" height="20" x="140" y="60" style="fill:url(#_c2);stroke:#999;" />
<rect  class="swatch_1 spans_1" width="20" height="20" x="160" y="60" style="fill:url(#_c1);stroke:#999;" />
<rect  class="swatch_3 spans_1" width="20" height="20" x="180" y="60" style="fill:url(#_c3);stroke:#999;" />
<rect  class="swatch_3 spans_1" width="20" height="20" x="200" y="60" style="fill:url(#_c3);stroke:#999;" />
<rect  class="swatch_3 spans_1" width="20" height="20" x="220" y="60" style="fill:url(#_c3);stroke:#999;" />
<rect  class="swatch_2 spans_1" width="20" height="20" x="240" y="60" style="fill:url(#_c2);stroke:#999;" />
<rect  class="swatch_1 spans_1" width="20" height="20" x="260" y="60" style="fill:url(#_c1);stroke:#999;" />
<rect  class="swatch_0 spans_1" width="20" height="20" x="280" y="60" style="fill:url(#_c0);stroke:#999;" />
<rect  class="swatch_0 spans_1" width="20" height="20" x="300" y="60" style="fill:url(#_c0);stroke:#999;" />


<rect  class="swatch_0 spans_1" width="20" height="20" x="0" y="80" style="fill:url(#_c0);stroke:#999;" />
<rect  class="swatch_2 spans_1" width="20" height="20" x="20" y="80" style="fill:url(#_c2);stroke:#999;" />
<rect  class="swatch_3 spans_1" width="20" height="20" x="40" y="80" style="fill:url(#_c3);stroke:#999;" />
<rect  class="swatch_3 spans_1" width="20" height="20" x="60" y="80" style="fill:url(#_c3);stroke:#999;" />
<rect  class="swatch_1 spans_1" width="20" height="20" x="80" y="80" style="fill:url(#_c1);stroke:#999;" />
<rect  class="swatch_1 spans_1" width="20" height="20" x="100" y="80" style="fill:url(#_c1);stroke:#999;" />
<rect  class="swatch_0 spans_1" width="20" height="20" x="120" y="80" style="fill:url(#_c0);stroke:#999;" />
<rect  class="swatch_3 spans_1" width="20" height="20" x="140" y="80" style="fill:url(#_c3);stroke:#999;" />
<rect  class="swatch_1 spans_1" width="20" height="20" x="160" y="80" style="fill:url(#_c1);stroke:#999;" />
<rect  class="swatch_3 spans_1" width="20" height="20" x="180" y="80" style="fill:url(#_c3);stroke:#999;" />
<rect  class="swatch_2 spans_1" width="20" height="20" x="200" y="80" style="fill:url(#_c2);stroke:#999;" />
<rect  class="swatch_0 spans_1" width="20" height="20" x="220" y="80" style="fill:url(#_c0);stroke:#999;" />
<rect  class="swatch_2 spans_1" width="20" height="20" x="240" y="80" style="fill:url(#_c2);stroke:#999;" />
<rect  class="swatch_1 spans_1" width="20" height="20" x="260" y="80" style="fill:url(#_c1);stroke:#999;" />
<rect  class="swatch_2 spans_1" width="20" height="20" x="280" y="80" style="fill:url(#_c2);stroke:#999;" />
<rect  class="swatch_3 spans_1" width="20" height="20" x="300" y="80" style="fill:url(#_c3);stroke:#999;" />


<rect  class="swatch_3 spans_1" width="20" height="20" x="0" y="100" style="fill:url(#_c3);stroke:#999;" />
<rect  class="swatch_0 spans_1" width="20" height="20" x="20" y="100" style="fill:url(#_c0);stroke:#999;" />
<rect  class="swatch_1 spans_1" width="20" height="20" x="40" y="100" style="fill:url(#_c1);stroke:#999;" />
<rect  class="swatch_3 spans_1" width="20" height="20" x="60" y="100" style="fill:url(#_c3);stroke:#999;" />
<rect  class="swatch_2 spans_1" width="20" height="20" x="80" y="100" style="fill:url(#_c2);stroke:#999;" />
<rect  class="swatch_0 spans_1" width="20" height="20" x="100" y="100" style="fill:url(#_c0);stroke:#999;" />
<rect  class="swatch_1 spans_1" width="20" height="20" x="120" y="100" style="fill:url(#_c1);stroke:#999;" />
<rect  class="swatch_0 spans_1" width="20" height="20" x="140" y="100" style="fill:url(#_c0);stroke:#999;" />
<rect  class="swatch_2 spans_1" width="20" height="20" x="160" y="100" style="fill:url(#_c2);stroke:#999;" />
<rect  class="swatch_3 spans_1" width="20" height="20" x="180" y="100" style="fill:url(#_c3);stroke:#999;" />
<rect  class="swatch_1 spans_1" width="20" height="20" x="200" y="100" style="fill:url(#_c1);stroke:#999;" />
<rect  class="swatch_0 spans_1" width="20" height="20" x="220" y="100" style="fill:url(#_c0);stroke:#999;" />
<rect  class="swatch_3 spans_1" width="20" height="20" x="240" y="100" style="fill:url(#_c3);stroke:#999;" />
<rect  class="swatch_3 spans_1" width="20" height="20" x="260" y="100" style="fill:url(#_c3);stroke:#999;" />
<rect  class="swatch_2 spans_1" width="20" height="20" x="280" y="100" style="fill:url(#_c2);stroke:#999;" />
<rect  class="swatch_2 spans_1" width="20" height="20" x="300" y="100" style="fill:url(#_c2);stroke:#999;" />


<rect  class="swatch_2 spans_1" width="20" height="20" x="0" y="120" style="fill:url(#_c2);stroke:#999;" />
<rect  class="swatch_0 spans_1" width="20" height="20" x="20" y="120" style="fill:url(#_c0);stroke:#999;" />
<rect  class="swatch_2 spans_1" width="20" height="20" x="40" y="120" style="fill:url(#_c2);stroke:#999;" />
<rect  class="swatch_3 spans_1" width="20" height="20" x="60" y="120" style="fill:url(#_c3);stroke:#999;" />
<rect  class="swatch_0 spans_1" width="20" height="20" x="80" y="120" style="fill:url(#_c0);stroke:#999;" />
<rect  class="swatch_2 spans_1" width="20" height="20" x="100" y="120" style="fill:url(#_c2);stroke:#999;" />
<rect  class="swatch_3 spans_1" width="20" height="20" x="120" y="120" style="fill:url(#_c3);stroke:#999;" />
<rect  class="swatch_0 spans_1" width="20" height="20" x="140" y="120" style="fill:url(#_c0);stroke:#999;" />
<rect  class="swatch_1 spans_1" width="20" height="20" x="160" y="120" style="fill:url(#_c1);stroke:#999;" />
<rect  class="swatch_3 spans_1" width="20" height="20" x="180" y="120" style="fill:url(#_c3);stroke:#999;" />
<rect  class="swatch_0 spans_1" width="20" height="20" x="200" y="120" style="fill:url(#_c0);stroke:#999;" />
<rect  class="swatch_3 spans_1" width="20" height="20" x="220" y="120" style="fill:url(#_c3);stroke:#999;" />
<rect  class="swatch_3 spans_1" width="20" height="20" x="240" y="120" style="fill:url(#_c3);stroke:#999;" />
<rect  class="swatch_3 spans_1" width="20" height="20" x="260" y="120" style="fill:url(#_c3);stroke:#999;" />
<rect  class="swatch_1 spans_1" width="20" height="20" x="280" y="120" style="fill:url(#_c1);stroke:#999;" />
<rect  class="swatch_3 spans_1" width="20" height="20" x="300" y="120" style="fill:url(#_c3);stroke:#999;" />


<rect  class="swatch_2 spans_1" width="20" height="20" x="0" y="140" style="fill:url(#_c2);stroke:#999;" />
<rect  class="swatch_3 spans_1" width="20" height="20" x="20" y="140" style="fill:url(#_c3);stroke:#999;" />
<rect  class="swatch_0 spans_1" width="20" height="20" x="40" y="140" style="fill:url(#_c0);stroke:#999;" />
<rect  class="swatch_3 spans_1" width="20" height="20" x="60" y="140" style="fill:url(#_c3);stroke:#999;" />
<rect  class="swatch_2 spans_1" width="20" height="20" x="80" y="140" style="fill:url(#_c2);stroke:#999;" />
<rect  class="swatch_1 spans_1" width="20" height="20" x="100" y="140" style="fill:url(#_c1);stroke:#999;" />
<rect  class="swatch_0 spans_1" width="20" height="20" x="120" y="140" style="fill:url(#_c0);stroke:#999;" />
<rect  class="swatch_0 spans_1" width="20" height="20" x="140" y="140" style="fill:url(#_c0);stroke:#999;" />
<rect  class="swatch_3 spans_1" width="20" height="20" x="160" y="140" style="fill:url(#_c3);stroke:#999;" />
<rect  class="swatch_2 spans_1" width="20" height="20" x="180" y="140" style="fill:url(#_c2);stroke:#999;" />
<rect  class="swatch_2 spans_1" width="20" height="20" x="200" y="140" style="fill:url(#_c2);stroke:#999;" />
<rect  class="swatch_3 spans_1" width="20" height="20" x="220" y="140" style="fill:url(#_c3);stroke:#999;" />
<rect  class="swatch_1 spans_1" width="20" height="20" x="240" y="140" style="fill:url(#_c1);stroke:#999;" />
<rect  class="swatch_1 spans_1" width="20" height="20" x="260" y="140" style="fill:url(#_c1);stroke:#999;" />
<rect  class="swatch_3 spans_1" width="20" height="20" x="280" y="140" style="fill:url(#_c3);stroke:#999;" />
<rect  class="swatch_2 spans_1" width="20" height="20" x="300" y="140" style="fill:url(#_c2);stroke:#999;" />


<rect  class="swatch_0 spans_1" width="20" height="20" x="0" y="160" style="fill:url(#_c0);stroke:#999;" />
<rect  class="swatch_3 spans_1" width="20" height="20" x="20" y="160" style="fill:url(#_c3);stroke:#999;" />
<rect  class="swatch_3 spans_1" width="20" height="20" x="40" y="160" style="fill:url(#_c3);stroke:#999;" />
<rect  class="swatch_1 spans_1" width="20" height="20" x="60" y="160" style="fill:url(#_c1);stroke:#999;" />
<rect  class="swatch_1 spans_1" width="20" height="20" x="80" y="160" style="fill:url(#_c1);stroke:#999;" />
<rect  class="swatch_3 spans_1" width="20" height="20" x="100" y="160" style="fill:url(#_c3);stroke:#999;" />
<rect  class="swatch_1 spans_1" width="20" height="20" x="120" y="160" style="fill:url(#_c1);stroke:#999;" />
<rect  class="swatch_2 spans_1" width="20" height="20" x="140" y="160" style="fill:url(#_c2);stroke:#999;" />
<rect  class="swatch_0 spans_1" width="20" height="20" x="160" y="160" style="fill:url(#_c0);stroke:#999;" />
<rect  class="swatch_1 spans_1" width="20" height="20" x="180" y="160" style="fill:url(#_c1);stroke:#999;" />
<rect  class="swatch_3 spans_1" width="20" height="20" x="200" y="160" style="fill:url(#_c3);stroke:#999;" />
<rect  class="swatch_1 spans_1" width="20" height="20" x="220" y="160" style="fill:url(#_c1);stroke:#999;" />
<rect  class="swatch_3 spans_1" width="20" height="20" x="240" y="160" style="fill:url(#_c3);stroke:#999;" />
<rect  class="swatch_0 spans_1" width="20" height="20" x="260" y="160" style="fill:url(#_c0);stroke:#999;" />
<rect  class="swatch_2 spans_1" width="20" height="20" x="280" y="160" style="fill:url(#_c2);stroke:#999;" />
<rect  class="swatch_2 spans_1" width="20" height="20" x="300" y="160" style="fill:url(#_c2);stroke:#999;" />


</g></svg>
